<?xml version="1.0" encoding="UTF-8"?>
<svg id="Layer_1" xmlns="http://www.w3.org/2000/svg" viewBox="0 0 757.94 225.49">
  <defs>
    <style>
      .cls-1 {
        fill: #FFFFFF;
      }

      .cls-2 {
        fill: #FFFFFF;
      }
    </style>
  </defs>
  <path class="cls-1" d="M315.02,23.43h21.39l21.03,55.77h.24l21.39-55.77h20.07l-35.09,85.09h-15.02l-34.01-85.09Z" />
  <path class="cls-1" d="M412.61,23.43h57.81v17.31h-39.06v12.89h36.9v17.3h-36.9v20.29h41.22v17.31h-59.97V23.43Z" />
  <path class="cls-1" d="M561.34,21.95h18.75V108.53h-18.75V21.95Z" />
  <path class="cls-1" d="M320.01,123.99h18.75v31.73h36.42v-31.73h18.75v85.09h-18.75v-36.78h-36.42v36.78h-18.75V123.99Z" />
  <path class="cls-1" d="M450.71,121.82c26.56,0,45.91,17.43,45.91,44.71s-19.35,44.71-45.91,44.71-45.91-17.42-45.91-44.71,19.35-44.71,45.91-44.71Zm0,72.12c15.98,0,26.44-11.54,26.44-27.41s-10.46-27.4-26.44-27.4-26.44,11.54-26.44,27.4,10.46,27.41,26.44,27.41Z" />
  <path class="cls-1" d="M736.3,173.14c12.02-2.16,18.39-11.41,18.39-23.32,0-19.83-14.66-25.84-32.09-25.84h-32.93v85.09h18.75v-69.23h12.26c6.85,0,14.54,1.32,14.54,9.85,0,9.25-8.9,9.5-15.75,9.5h-10.13l26.11,49.88h22.48l-21.63-35.94Z" />
  <path class="cls-1" d="M553.33,176.17h15.26v13.82c-3.48,1.92-9.49,4.21-17.67,4.21-15.98,0-26.44-11.54-26.44-27.41s10.51-26.09,26.44-27.4c13.84-1.14,19.8,1.65,29.24,8.96v-19.12c-7.25-5.26-15.51-7.69-29.24-7.14-26.54,1.05-45.91,17.43-45.91,44.71s19.35,44.71,45.91,44.71c12.5,0,24.64-2.4,35.7-8.17v-44.47h-33.29v17.3Z" />
  <polygon class="cls-1" points="645.12 123.99 629.61 123.99 592.83 209.08 613.51 209.08 636.82 148.75 660.98 209.08 682.13 209.08 645.12 123.99" />
  <path class="cls-1" d="M507.1,47.35c0-6.37,7.33-8.78,12.62-8.78,4.53,0,11.45-.34,19.6,6.36V25.56c-5.84-2.99-12.44-4.29-19.24-4.29-16.71,0-32.45,9.5-32.45,27.65,0,28.36,39.9,19.95,39.9,35.57,0,6.01-6.85,8.9-12.98,8.9s-17.11-3.93-23.63-13.48v24.71c6.68,4.18,14.23,6.07,22.56,6.07,17.55,0,32.81-9.01,32.81-28,0-29.81-39.18-19.84-39.18-35.33Z" />
  <path class="cls-2" d="M254.26,225.49l-10.1-2.15c-29.5-6.27-54.78-23.66-71.2-48.95-16.42-25.29-22.01-55.46-15.74-84.95C170.17,28.55,230.24-10.46,291.12,2.5l5.83,1.24,.37,5.95c.63,10.17-.13,20.45-2.28,30.54-6.27,29.49-23.65,54.78-48.95,71.2-13.22,8.58-27.77,14.21-42.86,16.72,28.84,19.17,48.16,51.1,50.38,87.03l.64,10.31Zm-82.34-95.38c2.26,12.58,7.03,24.7,14.2,35.74,12.09,18.62,29.76,32.26,50.51,39.2-6.24-34.74-31.19-63.64-64.7-74.94Zm-1.51-17.21c23.45,3.51,47.08-1.61,67.14-14.64,21.78-14.14,36.74-35.91,42.14-61.3,1.42-6.68,2.14-13.45,2.15-20.2-50.31-7.48-98.56,25.52-109.28,75.94-1.43,6.72-2.14,13.49-2.16,20.2Z" />
  <path class="cls-2" d="M43.28,225.49l.64-10.31c2.22-35.93,21.54-67.87,50.38-87.03-15.09-2.52-29.64-8.14-42.86-16.72C26.15,95.01,8.77,69.72,2.5,40.23,.35,30.12-.42,19.85,.22,9.69L.59,3.74l5.83-1.24c29.49-6.26,59.67-.68,84.96,15.74,25.29,16.42,42.67,41.71,48.95,71.2,6.27,29.5,.68,59.67-15.74,84.95-16.42,25.29-41.71,42.67-71.2,48.95l-10.1,2.15Zm82.34-95.38c-33.51,11.3-58.46,40.19-64.7,74.94,20.75-6.94,38.42-20.58,50.51-39.2,7.17-11.04,11.94-23.16,14.2-35.74ZM15.69,16.76c0,6.74,.73,13.51,2.15,20.2,5.4,25.39,20.37,47.17,42.14,61.3,20.06,13.03,43.69,18.14,67.14,14.64-.02-6.72-.73-13.48-2.16-20.2-5.4-25.39-20.37-47.17-42.14-61.3C62.77,18.37,39.14,13.25,15.69,16.76Z" />
</svg>